<svg width="500" height="500" viewBox="0 0 500 500" xmlns="http://www.w3.org/2000/svg" xmlns:xlink="http://www.w3.org/1999/xlink"><defs><clipPath id="clip-1"><rect x="0" y="0" width="500" height="500" fill-opacity="0" fill="#ffffff"></rect></clipPath></defs><g clip-path="url(#clip-1)" id="Frame - 3" fill="none" fill-rule="nonzero" stroke="none" stroke-width="1" stroke-linecap="butt" stroke-linejoin="miter" stroke-miterlimit="10" stroke-dasharray="" stroke-dashoffset="0" font-family="none" font-weight="none" font-size="none" text-anchor="none" style="mix-blend-mode: normal"><rect x="0" y="0" width="500" height="500" fill-opacity="0" fill="#ffffff"></rect><g fill="#32231c"><path d="M204.3516,362.7841c-7.3906,12.765 -14.948,21.6683 -22.6746,26.7074c-7.3906,5.0391 -14.9503,7.5587 -22.6769,7.5587c-12.0939,0 -21.1644,-5.0391 -27.2114,-15.1174c-6.0467,-10.0783 -6.384,-25.6996 -1.0091,-46.864l38.8032,-146.134c3.6953,-13.1007 4.1984,-22.172 1.5115,-27.2114c-2.3514,-5.0391 -5.8796,-7.5597 -10.5827,-7.5597c-7.3908,0 -15.7887,4.7039 -25.1952,14.1104c-9.0704,9.0705 -18.6446,21.6688 -28.7228,37.7941c-9.7423,15.789 -19.3164,33.7617 -28.7226,53.9178c-9.0704,19.8195 -17.4712,40.8168 -25.1978,62.989c-7.7266,21.8354 -13.9417,43.1695 -18.6448,63.9971c-1.0078,3.6945 -3.3598,5.5431 -7.055,5.5431h-21.163c-4.703,0 -6.5513,-2.1828 -5.5437,-6.5509l73.572,-315.9551c1.6794,-6.0462 1.6794,-10.2449 0,-12.5963c-1.3439,-2.3517 -4.3681,-3.6963 -9.0712,-4.0323l-15.1172,-1.5115c-5.0389,-0.336 -7.2224,-2.5193 -6.5506,-6.5504c0.6721,-3.0236 3.024,-4.8719 7.0553,-5.5438c12.0937,-2.0156 22.844,-4.3676 32.2503,-7.0552c9.4062,-3.0235 16.966,-6.8864 22.6769,-11.5895c2.6872,-2.0151 5.2063,-3.0228 7.5574,-3.0229c4.0311,0 5.5418,2.5188 4.5345,7.5573l-49.3836,214.1655c-0.3358,2.3509 0.1702,3.6938 1.5138,4.0298c1.3436,0.3355 2.5201,-0.5031 3.5277,-2.5183c13.4378,-27.5471 26.2022,-49.2162 38.2962,-65.0054c12.0937,-15.789 23.3477,-27.043 33.7617,-33.7617c10.7503,-6.7188 20.4931,-10.078 29.2275,-10.078c12.43,0 21.5004,5.0387 27.2114,15.1169c5.7109,10.0783 5.7109,25.5325 0,46.3609l-38.2962,146.1341c-2.3514,9.4072 -2.5201,16.4595 -0.5047,21.1644c2.0154,4.7023 5.7102,7.0548 11.0848,7.0548c6.7188,0 13.2712,-4.3681 19.6539,-13.1018c6.383,-9.0704 21.1804,-52.9546 21.8507,-53.8056c19.0585,-55.8095 42.2148,-84.081 70.2154,-84.081c11.4203,0 19.1487,4.7021 23.18,14.1078c4.0313,9.4062 3.8642,22.3422 -0.5039,38.8032l-42.3288,160.7478c-3.0235,11.4203 -3.1906,19.8197 -0.5039,25.1957c2.6867,5.3734 6.7206,8.0626 12.0939,8.0626c16.462,0 34.7726,-20.1566 54.9266,-60.4697c20.4934,-40.6499 38.4671,-99.9421 53.9188,-177.8809c1.0078,-3.6953 3.3603,-5.5438 7.0548,-5.5438h19.6526c4.7023,0 6.5509,2.1835 5.5431,6.5506l-40.3131,204.0855c-2.3499,11.0835 -2.1828,19.4829 0.5039,25.1957c3.0235,5.3734 7.7258,8.0626 14.1096,8.0626c9.7415,0 19.6526,-4.7023 29.7309,-14.1096c10.0783,-9.4072 19.1513,-21.6683 27.2114,-36.7857c8.3994,-15.1174 15.1174,-31.7466 20.1566,-49.8875c5.0391,-18.1409 7.5587,-35.9476 7.5587,-53.4149c0,-14.1096 -1.1775,-25.1957 -3.5274,-33.2583c-2.0157,-8.3981 -4.201,-15.454 -6.5509,-21.1649c-2.3525,-5.711 -3.5274,-11.9263 -3.5274,-18.6448c0,-13.1013 5.7102,-19.6511 17.1331,-19.6514c8.0626,0 13.2689,4.535 15.6213,13.6054c2.3525,8.7344 3.5274,22.0036 3.5274,39.8077c0,25.531 -3.1906,50.8964 -9.5744,76.0921c-6.047,24.8615 -14.4464,47.5376 -25.1957,68.0284c-10.4151,20.1566 -22.509,36.4489 -36.2818,48.8797c-13.436,12.0939 -27.7153,18.1409 -42.8327,18.1409c-14.4464,0 -25.5325,-5.543 -33.2583,-16.6292c-7.7284,-11.4229 -9.4072,-27.8849 -5.0391,-49.3836c0.671,-2.3525 0.1671,-3.6971 -1.5117,-4.0313c-1.3446,-0.3368 -2.5196,0.5039 -3.5274,2.5196c-9.4072,18.8119 -19.9894,34.7701 -31.7466,47.8718c-11.7571,13.1018 -25.1957,19.6526 -40.3131,19.6526c-13.7728,0 -24.3565,-5.3734 -31.7474,-16.1253c-7.3906,-10.7493 -8.7326,-25.3628 -4.0298,-43.8405l40.3123,-152.1821c4.3681,-15.789 1.6789,-23.6832 -8.0626,-23.6837c-7.0548,0 -14.1099,5.0389 -21.1647,15.1172c-6.719,10.0783 -13.374,26.5403 -21.4366,49.3836c-0.0895,0.27 -13.1175,39.5958 -20.2388,52.2219z"></path></g></g></svg>